<?xml version="1.0" standalone="no"?>
<!DOCTYPE svg PUBLIC "-//W3C//DTD SVG 20010904//EN"
 "http://www.w3.org/TR/2001/REC-SVG-20010904/DTD/svg10.dtd">
<svg version="1.0" xmlns="http://www.w3.org/2000/svg"
 width="332.000000pt" height="343.000000pt" viewBox="0 0 332.000000 343.000000"
 preserveAspectRatio="xMidYMid meet">

<g transform="translate(0.000000,343.000000) scale(0.100000,-0.100000)"
fill="#000000" stroke="none">
<path d="M1420 3300 c-594 -82 -1098 -479 -1311 -1035 -17 -44 -46 -141 -65
-215 -30 -117 -36 -157 -41 -295 -6 -186 5 -300 47 -459 106 -406 339 -738
675 -962 261 -174 523 -259 835 -271 259 -10 477 28 699 122 371 157 661 434
837 800 113 235 148 402 148 700 0 308 -41 493 -165 737 -84 163 -165 273
-304 414 -229 229 -499 376 -820 444 -113 24 -421 36 -535 20z m503 -70 c495
-96 910 -416 1126 -870 58 -122 91 -219 123 -362 20 -90 23 -129 23 -313 -1
-178 -4 -226 -23 -311 -32 -148 -66 -244 -132 -379 -221 -451 -623 -758 -1122
-857 -161 -31 -415 -31 -576 0 -486 97 -885 394 -1107 823 -117 227 -165 415
-173 669 -3 100 0 201 7 255 96 729 676 1289 1416 1369 90 9 333 -4 438 -24z"/>
<path d="M1388 3183 c-9 -10 -23 -32 -31 -49 -9 -17 -26 -34 -37 -37 -30 -8
-24 -51 8 -55 22 -3 23 -5 7 -28 -19 -29 -11 -47 16 -39 25 8 24 -3 -2 -31
-22 -23 -17 -49 7 -40 8 3 14 3 14 0 0 -11 -31 -77 -34 -73 -5 5 -52 183 -59
224 -3 16 -1 38 4 47 17 32 -13 20 -66 -27 -46 -41 -48 -45 -34 -62 9 -10 22
-42 29 -71 10 -45 10 -56 -4 -77 -37 -56 -3 -76 44 -25 34 37 40 37 40 5 0
-14 7 -28 15 -31 8 -4 12 -11 8 -17 -4 -6 8 0 26 13 18 12 40 38 47 57 l15 34
39 -22 c34 -19 41 -20 56 -9 15 13 14 16 -6 32 -12 10 -37 18 -56 18 -42 0
-43 15 -3 56 36 37 31 64 -7 39 -27 -17 -33 -3 -9 21 8 9 15 20 15 25 0 13
-34 11 -49 -3 -13 -13 15 42 45 88 29 43 -5 75 -38 37z m-7 -69 c-13 -23 -21
-31 -21 -21 0 24 32 85 37 70 2 -6 -5 -28 -16 -49z m-107 -189 c3 -8 1 -15 -4
-15 -6 0 -10 7 -10 15 0 8 2 15 4 15 2 0 6 -7 10 -15z"/>
<path d="M1985 3113 c-44 -25 -104 -56 -134 -70 -29 -13 -51 -26 -49 -29 3 -2
34 5 69 15 71 23 122 16 169 -19 23 -18 23 -20 5 -20 -14 -1 -11 -5 14 -15 46
-20 71 -19 71 3 0 30 -59 75 -119 92 -24 6 -21 8 32 33 34 15 57 32 57 41 0
26 -30 18 -115 -31z"/>
<path d="M1924 2995 c-4 -9 -18 -21 -31 -26 -22 -8 -24 -14 -21 -61 l3 -53 47
-9 c38 -7 52 -6 73 8 57 38 38 71 -47 82 -63 9 -51 28 14 22 37 -4 51 -2 55 9
8 20 -6 30 -49 38 -30 6 -39 4 -44 -10z m56 -105 c0 -5 -15 -10 -34 -10 -19 0
-38 5 -41 10 -4 6 10 10 34 10 23 0 41 -4 41 -10z"/>
<path d="M740 2838 c-29 -46 -70 -106 -91 -135 -30 -40 -36 -53 -25 -62 14
-12 56 12 56 32 0 20 89 159 126 198 19 19 31 38 28 42 -20 20 -44 0 -94 -75z"/>
<path d="M670 2875 c-7 -9 -9 -26 -4 -47 4 -18 9 -27 11 -20 3 7 18 19 34 27
40 21 40 55 0 55 -16 0 -34 -7 -41 -15z"/>
<path d="M2572 2846 c-11 -18 -40 -47 -63 -63 -41 -28 -46 -29 -74 -17 -16 7
-38 13 -47 14 -25 0 -23 -27 2 -35 11 -3 20 -10 20 -15 0 -15 -100 -42 -131
-36 -16 3 -29 2 -29 -3 0 -24 84 -28 145 -6 22 8 41 15 43 15 1 0 2 -32 2 -70
0 -72 14 -114 45 -140 26 -22 40 2 22 37 -20 38 -49 150 -45 174 3 18 5 18 47
-2 54 -24 73 -13 43 25 -13 18 -22 22 -25 14 -2 -7 -8 -10 -12 -6 -4 4 11 18
33 32 47 30 72 62 72 93 0 34 -25 28 -48 -11z"/>
<path d="M1476 2800 c-403 -64 -752 -352 -885 -732 -80 -230 -83 -502 -7 -724
101 -299 340 -556 625 -675 147 -61 249 -81 421 -83 164 -1 218 7 355 51 549
177 872 751 740 1319 -61 265 -239 518 -473 671 -181 119 -355 173 -577 178
-77 2 -167 0 -199 -5z m344 -61 c193 -29 401 -134 558 -282 199 -189 322 -479
322 -762 0 -432 -272 -830 -675 -986 -140 -55 -248 -72 -420 -66 -164 6 -245
23 -375 78 -411 175 -671 589 -646 1031 22 389 257 737 607 902 192 91 403
119 629 85z"/>
<path d="M1492 2649 c-165 -21 -301 -97 -403 -225 -141 -178 -225 -434 -236
-725 -6 -162 4 -260 43 -408 73 -279 255 -454 550 -528 100 -25 326 -24 414 1
446 128 671 527 500 884 l-40 84 43 48 c60 67 81 137 74 244 -7 102 -26 165
-74 243 -78 126 -172 208 -327 283 -117 57 -214 85 -341 100 -100 11 -113 11
-203 -1z m204 -69 c73 -36 111 -108 124 -234 7 -73 -3 -282 -15 -315 -4 -9
-20 12 -41 55 -46 88 -90 148 -154 208 -50 47 -138 96 -174 96 -15 0 -17 5
-11 28 11 44 53 109 88 136 66 50 117 57 183 26z m-247 -22 c-119 -129 -142
-383 -63 -699 26 -105 81 -269 119 -354 l24 -55 -46 -31 c-105 -73 -230 -93
-308 -52 -75 40 -128 112 -167 228 -21 64 -23 86 -22 265 0 167 4 206 22 274
61 220 188 369 373 436 30 10 64 19 76 20 21 0 20 -2 -8 -32z m514 -33 c119
-50 184 -93 262 -170 179 -179 218 -426 86 -556 -25 -25 -53 -48 -61 -51 -12
-4 -9 -12 13 -38 111 -131 131 -374 45 -544 -55 -110 -162 -214 -287 -280
-193 -101 -378 -117 -614 -54 l-78 21 57 23 c162 66 295 213 414 459 125 258
173 524 150 838 -13 189 -40 291 -96 364 l-26 34 29 -7 c15 -3 63 -21 106 -39z
m-465 -211 c93 -46 199 -182 257 -327 l28 -68 -18 -62 c-26 -91 -118 -275
-163 -327 l-39 -44 -41 104 c-86 223 -122 378 -129 552 -7 158 -1 198 30 198
13 0 46 -12 75 -26z"/>
<path d="M2066 2240 c-33 -39 -41 -87 -26 -150 21 -88 99 -170 160 -170 51 0
100 61 100 124 0 55 -35 131 -82 179 -40 40 -53 47 -87 47 -31 0 -44 -6 -65
-30z m119 -53 c70 -70 82 -217 18 -217 -53 0 -123 104 -123 184 0 72 51 87
105 33z"/>
<path d="M2072 1529 c-76 -38 -131 -135 -132 -232 0 -93 48 -157 117 -157 170
0 275 325 127 395 -43 20 -61 19 -112 -6z m103 -54 c48 -47 25 -172 -43 -238
-51 -49 -84 -56 -116 -23 -61 60 -9 220 89 274 30 17 43 14 70 -13z"/>
<path d="M763 2754 c-35 -53 -26 -103 15 -90 15 5 26 -1 42 -21 l22 -28 -32
-5 c-52 -8 -68 -60 -25 -76 19 -8 20 -6 29 28 5 22 3 26 -9 22 -8 -4 -15 -1
-15 6 0 8 13 9 44 5 59 -9 64 5 22 61 -29 37 -36 56 -36 90 0 56 -25 59 -57 8z
m37 -29 c0 -14 -4 -25 -10 -25 -5 0 -10 11 -10 25 0 14 5 25 10 25 6 0 10 -11
10 -25z"/>
<path d="M873 2710 c-13 -5 -23 -14 -23 -19 0 -15 73 -20 89 -6 30 28 -16 45
-66 25z"/>
<path d="M372 2414 c20 -9 38 -25 41 -35 7 -25 2 -24 -38 6 -37 29 -90 38 -90
16 0 -8 33 -32 72 -54 40 -23 75 -49 78 -58 3 -10 17 -34 30 -53 13 -20 22
-36 19 -36 -18 0 -64 37 -64 52 0 20 -22 36 -28 20 -6 -18 -18 -15 -48 13 -31
28 -88 34 -97 10 -7 -17 0 -22 78 -55 55 -24 60 -28 66 -63 8 -48 16 -56 25
-23 7 31 7 30 44 11 24 -12 30 -22 30 -48 1 -75 37 -73 47 2 5 36 2 47 -24 79
-16 20 -35 47 -42 60 l-12 23 40 -20 c22 -12 49 -21 60 -21 36 0 94 91 76 119
-12 21 -26 11 -45 -33 -10 -24 -23 -47 -30 -51 -6 -4 -33 8 -60 25 -43 27 -50
37 -50 64 0 45 -9 53 -65 59 l-50 6 37 -15z"/>
<path d="M2732 2399 c3 -22 15 -32 105 -87 21 -13 56 -40 78 -59 32 -28 35
-35 18 -30 -13 3 -23 2 -23 -2 0 -12 60 -42 70 -36 29 18 -10 61 -134 145 -60
42 -88 70 -67 70 8 0 45 -25 145 -100 93 -69 136 -82 136 -39 0 11 -17 28 -45
45 -25 14 -45 32 -45 39 0 7 -14 15 -31 19 -25 5 -30 10 -26 26 10 37 -37 36
-48 -1 -6 -19 -7 -19 -36 1 -16 12 -45 24 -65 27 -33 5 -36 4 -32 -18z m198
-69 c0 -18 -2 -19 -20 -8 -11 7 -20 16 -20 20 0 5 9 8 20 8 13 0 20 -7 20 -20z
m76 -35 c19 -14 19 -14 -1 -14 -11 0 -31 6 -45 14 l-25 14 26 1 c14 0 34 -7
45 -15z"/>
<path d="M2800 2298 c4 -50 0 -52 -33 -20 -18 18 -41 32 -51 32 -17 0 -18 -1
-1 -27 10 -16 24 -33 33 -40 13 -11 11 -14 -13 -23 -36 -14 -55 -7 -55 20 0
12 -4 18 -10 15 -14 -9 -13 -58 2 -73 18 -18 49 -15 87 9 l33 20 22 -20 c24
-22 46 -27 46 -11 0 6 -9 18 -20 27 -25 21 -10 42 25 35 36 -6 31 10 -14 46
-47 38 -53 39 -51 10z"/>
<path d="M2870 1874 c0 -8 20 -24 47 -36 l46 -20 -39 -24 c-21 -13 -42 -24
-46 -24 -10 0 -10 -27 0 -33 4 -3 32 10 63 28 32 19 78 36 108 40 34 5 51 12
51 21 0 10 -14 14 -50 14 -31 0 -73 10 -110 25 -70 29 -70 29 -70 9z"/>
<path d="M180 1800 c0 -52 3 -61 25 -76 17 -11 35 -14 57 -10 18 4 51 7 73 6
60 -1 77 17 83 84 l4 56 -121 0 -121 0 0 -60z m195 -5 c0 -25 -4 -30 -25 -30
-16 0 -26 6 -28 18 -6 30 6 49 30 45 18 -2 23 -9 23 -33z m-95 -3 c0 -27 -15
-52 -31 -52 -16 0 -39 33 -39 56 0 21 5 24 35 24 32 0 35 -3 35 -28z"/>
<path d="M2870 1630 c0 -56 3 -70 15 -70 10 0 15 10 15 26 l0 26 98 -3 c81 -3
97 -2 97 11 0 12 -18 16 -92 18 l-93 3 0 29 c0 23 -5 30 -20 30 -18 0 -20 -7
-20 -70z"/>
<path d="M250 1651 c-41 -3 -74 -9 -72 -13 1 -5 2 -35 2 -68 0 -54 2 -60 21
-60 19 0 21 5 17 49 -3 43 0 51 17 55 39 11 44 7 47 -41 2 -36 7 -49 21 -51
14 -3 17 4 17 47 0 50 1 51 30 51 29 0 30 -1 30 -50 0 -43 3 -50 20 -50 22 0
26 29 14 103 -7 42 1 40 -164 28z"/>
<path d="M2855 1509 c-4 -6 -5 -12 -3 -14 5 -5 192 -35 218 -35 33 0 23 29
-12 34 -18 3 -60 10 -92 16 -76 13 -103 13 -111 -1z"/>
<path d="M283 1463 c-81 -13 -93 -18 -93 -35 0 -16 5 -19 28 -14 15 3 59 10
97 16 107 17 115 19 115 35 0 18 -22 18 -147 -2z"/>
<path d="M2840 1410 c-39 -39 -14 -95 47 -106 34 -6 39 -4 74 37 32 37 41 42
56 33 35 -22 23 -66 -19 -69 -13 -1 -24 -9 -26 -18 -5 -25 53 -22 78 3 24 24
27 82 5 100 -8 6 -32 14 -53 17 -36 5 -42 2 -67 -31 -28 -37 -61 -47 -71 -21
-8 20 13 45 37 45 11 0 19 7 19 15 0 22 -56 19 -80 -5z"/>
<path d="M232 1354 c-28 -19 -29 -65 -2 -89 20 -18 23 -18 121 10 55 16 103
33 106 38 15 25 -19 25 -100 1 -85 -25 -117 -26 -117 -4 0 6 11 15 24 21 14 7
22 17 19 25 -7 18 -23 18 -51 -2z"/>
<path d="M2808 1253 c-22 -25 -50 -82 -46 -94 4 -13 205 -109 212 -101 15 14
3 31 -29 42 -43 14 -48 22 -34 54 14 30 26 32 75 11 31 -13 36 -13 41 1 3 8 4
16 2 17 -22 14 -84 37 -99 37 -11 0 -20 4 -20 10 0 11 -52 40 -73 40 -8 0 -21
-8 -29 -17z m71 -37 c10 -11 9 -21 -4 -45 -15 -31 -16 -31 -45 -16 -30 15 -30
16 -15 45 17 32 45 39 64 16z"/>
<path d="M365 1215 c-89 -39 -120 -63 -90 -71 19 -6 210 82 210 96 0 23 -16
19 -120 -25z"/>
<path d="M408 1114 c-90 -51 -112 -74 -90 -88 5 -3 39 13 77 35 37 22 69 38
70 37 2 -2 -17 -38 -42 -81 -45 -79 -51 -113 -20 -111 18 2 197 105 197 114 0
3 -4 11 -9 18 -6 11 -23 4 -76 -28 -37 -23 -68 -40 -70 -38 -2 2 17 38 42 81
29 52 42 85 38 98 -4 10 -9 19 -13 19 -4 0 -51 -25 -104 -56z"/>
<path d="M2706 1064 c-21 -31 -36 -57 -34 -58 2 -2 37 -24 78 -51 41 -26 85
-54 97 -62 21 -14 24 -12 58 41 33 52 38 76 15 76 -6 0 -22 -18 -36 -40 -26
-39 -27 -39 -55 -24 l-29 14 25 41 c24 37 26 59 5 59 -6 0 -20 -16 -32 -35
-25 -38 -34 -41 -61 -21 -18 14 -17 16 8 55 24 36 27 61 6 61 -5 0 -25 -25
-45 -56z"/>
<path d="M2636 944 c-4 -10 12 -45 39 -90 24 -41 42 -74 40 -74 -3 0 -38 17
-80 37 -69 34 -76 36 -91 21 -15 -14 -11 -18 38 -40 134 -61 166 -72 182 -59
12 10 6 27 -46 117 -33 57 -63 104 -68 104 -4 0 -11 -7 -14 -16z"/>
<path d="M543 908 c-70 -50 -82 -116 -32 -173 17 -19 38 -35 46 -35 9 0 13 -6
10 -13 -3 -8 -2 -19 2 -26 6 -9 23 0 59 29 29 22 52 44 52 48 -1 4 -16 25 -35
47 -27 32 -37 37 -46 28 -10 -10 -8 -19 9 -42 11 -16 18 -31 15 -35 -14 -14
-61 -4 -81 17 -33 35 -28 70 13 106 72 63 154 24 135 -64 -9 -42 23 -48 37 -7
13 36 0 78 -33 113 -36 38 -103 40 -151 7z"/>
<path d="M2475 780 c-8 -12 131 -175 148 -175 25 0 10 27 -57 105 -69 80 -79
89 -91 70z"/>
<path d="M2411 731 c-10 -7 -4 -22 27 -72 23 -35 39 -65 37 -67 -1 -2 -35 13
-75 33 -51 26 -80 35 -97 30 -14 -3 -23 -11 -20 -18 14 -36 120 -188 130 -184
21 7 17 24 -23 85 -22 34 -38 62 -36 62 2 0 41 -18 87 -39 64 -30 88 -37 102
-30 17 10 17 11 -3 42 -11 18 -39 62 -62 100 -45 71 -46 71 -67 58z"/>
<path d="M912 602 c-59 -88 -66 -128 -30 -162 31 -28 65 -35 94 -19 28 14 127
157 118 170 -12 20 -31 5 -74 -58 -52 -77 -72 -93 -97 -77 -33 20 -27 53 22
126 41 61 45 72 33 85 -13 12 -22 4 -66 -65z"/>
<path d="M2213 614 c-8 -4 -1 -30 23 -87 37 -85 38 -121 5 -132 -33 -10 -49 6
-86 90 -26 58 -42 82 -51 78 -21 -8 -18 -23 20 -106 43 -92 69 -114 121 -97
38 12 65 43 65 73 0 22 -70 187 -79 186 -3 0 -11 -3 -18 -5z"/>
<path d="M1136 561 c-3 -4 -23 -53 -45 -110 -32 -83 -37 -103 -25 -108 20 -8
25 -1 56 75 15 37 28 65 29 62 0 -3 9 -45 18 -95 14 -77 19 -90 37 -93 17 -2
26 11 57 90 45 117 47 123 23 123 -14 0 -25 -17 -44 -69 -29 -79 -32 -77 -52
51 -9 56 -15 72 -31 76 -10 3 -21 2 -23 -2z"/>
<path d="M1331 387 c-13 -56 -26 -108 -28 -114 -3 -8 3 -13 15 -13 18 0 24 15
46 110 31 131 30 120 9 120 -14 0 -23 -21 -42 -103z"/>
<path d="M1825 471 c-3 -6 -3 -43 1 -81 3 -39 4 -70 2 -70 -3 0 -29 32 -57 70
-45 63 -75 83 -92 65 -7 -6 16 -224 24 -231 14 -14 37 6 33 28 -8 37 -18 138
-14 138 2 0 29 -34 59 -75 40 -55 60 -75 77 -75 23 0 23 1 16 73 -12 123 -19
160 -31 164 -6 2 -14 -1 -18 -6z"/>
<path d="M1469 456 c-15 -9 -34 -31 -43 -50 -42 -88 -2 -173 85 -183 55 -6 83
7 109 50 31 49 27 119 -8 158 -33 37 -100 49 -143 25z m108 -48 c51 -48 16
-148 -53 -148 -65 0 -94 63 -59 130 24 45 74 54 112 18z"/>
</g>
</svg>
