<?xml version="1.0" encoding="UTF-8" standalone="no"?>
<!DOCTYPE svg PUBLIC "-//W3C//DTD SVG 1.1//EN"
 "http://www.w3.org/Graphics/SVG/1.1/DTD/svg11.dtd">
<!-- Generated by graphviz version 2.40.1 (20161225.0304)
 -->
<!-- Title: dependencies Pages: 1 -->
<svg width="1068pt" height="284pt"
 viewBox="0.00 0.00 1068.00 284.00" xmlns="http://www.w3.org/2000/svg" xmlns:xlink="http://www.w3.org/1999/xlink">
<g id="graph0" class="graph" transform="scale(1 1) rotate(0) translate(4 280)">
<title>dependencies</title>
<polygon fill="#ffffff" stroke="transparent" points="-4,4 -4,-280 1064,-280 1064,4 -4,4"/>
<text text-anchor="start" x="509.0091" y="-42.4" font-family="sans-serif" font-weight="bold" font-size="14.00" fill="#000000">Legend</text>
<polygon fill="#ffffb3" stroke="transparent" points="296,-10 296,-30 316,-30 316,-10 296,-10"/>
<text text-anchor="start" x="319.629" y="-15.4" font-family="sans-serif" font-size="14.00" fill="#000000"> &#160;Declarations</text>
<polygon fill="#8dd3c7" stroke="transparent" points="409,-10 409,-30 429,-30 429,-10 409,-10"/>
<text text-anchor="start" x="432.7251" y="-15.4" font-family="sans-serif" font-size="14.00" fill="#000000"> &#160;Module</text>
<polygon fill="#80b1d3" stroke="transparent" points="495,-10 495,-30 515,-30 515,-10 495,-10"/>
<text text-anchor="start" x="518.7812" y="-15.4" font-family="sans-serif" font-size="14.00" fill="#000000"> &#160;Bootstrap</text>
<polygon fill="#fdb462" stroke="transparent" points="592,-10 592,-30 612,-30 612,-10 592,-10"/>
<text text-anchor="start" x="615.6732" y="-15.4" font-family="sans-serif" font-size="14.00" fill="#000000"> &#160;Providers</text>
<polygon fill="#fb8072" stroke="transparent" points="688,-10 688,-30 708,-30 708,-10 688,-10"/>
<text text-anchor="start" x="711.7258" y="-15.4" font-family="sans-serif" font-size="14.00" fill="#000000"> &#160;Exports</text>
<g id="clust1" class="cluster">
<title>cluster_CommentModule</title>
<polygon fill="none" stroke="#000000" stroke-dasharray="1,5" points="8,-70 8,-268 1052,-268 1052,-70 8,-70"/>
</g>
<g id="clust2" class="cluster">
<title>cluster_CommentModule_declarations</title>
<polygon fill="none" stroke="#000000" points="352,-78 352,-130 1044,-130 1044,-78 352,-78"/>
</g>
<g id="clust7" class="cluster">
<title>cluster_CommentModule_imports</title>
<polygon fill="none" stroke="#000000" points="196,-78 196,-130 344,-130 344,-78 196,-78"/>
</g>
<g id="clust8" class="cluster">
<title>cluster_CommentModule_exports</title>
<polygon fill="none" stroke="#000000" points="166,-208 166,-260 872,-260 872,-208 166,-208"/>
</g>
<g id="clust10" class="cluster">
<title>cluster_CommentModule_providers</title>
<polygon fill="none" stroke="#000000" points="16,-78 16,-130 188,-130 188,-78 16,-78"/>
</g>
<!-- CommentBoxComponent -->
<g id="node1" class="node">
<title>CommentBoxComponent</title>
<polygon fill="#ffffb3" stroke="#000000" points="1035.892,-122 876.108,-122 876.108,-86 1035.892,-86 1035.892,-122"/>
<text text-anchor="middle" x="956" y="-99.8" font-family="Times,serif" font-size="14.00" fill="#000000">CommentBoxComponent</text>
</g>
<!-- CommentModule -->
<g id="node5" class="node">
<title>CommentModule</title>
<polygon fill="#8dd3c7" stroke="#000000" points="582.273,-187 579.273,-191 558.273,-191 555.273,-187 467.727,-187 467.727,-151 582.273,-151 582.273,-187"/>
<text text-anchor="middle" x="525" y="-164.8" font-family="Times,serif" font-size="14.00" fill="#000000">CommentModule</text>
</g>
<!-- CommentBoxComponent&#45;&gt;CommentModule -->
<g id="edge1" class="edge">
<title>CommentBoxComponent&#45;&gt;CommentModule</title>
<path fill="none" stroke="#000000" d="M956,-122.1061C956,-141.3391 956,-169 956,-169 956,-169 592.6794,-169 592.6794,-169"/>
<polygon fill="#000000" stroke="#000000" points="592.6794,-165.5001 582.6794,-169 592.6793,-172.5001 592.6794,-165.5001"/>
</g>
<!-- CommentComponent -->
<g id="node2" class="node">
<title>CommentComponent</title>
<polygon fill="#ffffb3" stroke="#000000" points="858.0561,-122 721.9439,-122 721.9439,-86 858.0561,-86 858.0561,-122"/>
<text text-anchor="middle" x="790" y="-99.8" font-family="Times,serif" font-size="14.00" fill="#000000">CommentComponent</text>
</g>
<!-- CommentComponent&#45;&gt;CommentModule -->
<g id="edge2" class="edge">
<title>CommentComponent&#45;&gt;CommentModule</title>
<path fill="none" stroke="#000000" d="M790,-122.027C790,-138.3976 790,-160 790,-160 790,-160 592.5011,-160 592.5011,-160"/>
<polygon fill="#000000" stroke="#000000" points="592.5011,-156.5001 582.5011,-160 592.501,-163.5001 592.5011,-156.5001"/>
</g>
<!-- CommentFormComponent -->
<g id="node3" class="node">
<title>CommentFormComponent</title>
<polygon fill="#ffffb3" stroke="#000000" points="703.3892,-122 536.6108,-122 536.6108,-86 703.3892,-86 703.3892,-122"/>
<text text-anchor="middle" x="620" y="-99.8" font-family="Times,serif" font-size="14.00" fill="#000000">CommentFormComponent</text>
</g>
<!-- CommentFormComponent&#45;&gt;CommentModule -->
<g id="edge3" class="edge">
<title>CommentFormComponent&#45;&gt;CommentModule</title>
<path fill="none" stroke="#000000" d="M559.4709,-122.1061C559.4709,-122.1061 559.4709,-140.991 559.4709,-140.991"/>
<polygon fill="#000000" stroke="#000000" points="555.971,-140.9909 559.4709,-150.991 562.971,-140.991 555.971,-140.9909"/>
</g>
<!-- CommentListComponent -->
<g id="node4" class="node">
<title>CommentListComponent</title>
<polygon fill="#ffffb3" stroke="#000000" points="518.3342,-122 359.6658,-122 359.6658,-86 518.3342,-86 518.3342,-122"/>
<text text-anchor="middle" x="439" y="-99.8" font-family="Times,serif" font-size="14.00" fill="#000000">CommentListComponent</text>
</g>
<!-- CommentListComponent&#45;&gt;CommentModule -->
<g id="edge4" class="edge">
<title>CommentListComponent&#45;&gt;CommentModule</title>
<path fill="none" stroke="#000000" d="M492.8903,-122.1061C492.8903,-122.1061 492.8903,-140.991 492.8903,-140.991"/>
<polygon fill="#000000" stroke="#000000" points="489.3903,-140.9909 492.8903,-150.991 496.3903,-140.991 489.3903,-140.9909"/>
</g>
<!-- CommentBoxComponent  -->
<g id="node7" class="node">
<title>CommentBoxComponent </title>
<polygon fill="#fb8072" stroke="#000000" points="863.8925,-252 700.1075,-252 700.1075,-216 863.8925,-216 863.8925,-252"/>
<text text-anchor="middle" x="782" y="-229.8" font-family="Times,serif" font-size="14.00" fill="#000000">CommentBoxComponent </text>
</g>
<!-- CommentModule&#45;&gt;CommentBoxComponent  -->
<g id="edge6" class="edge">
<title>CommentModule&#45;&gt;CommentBoxComponent </title>
<path fill="none" stroke="#000000" stroke-dasharray="5,2" d="M582.3005,-178C637.4653,-178 712.5835,-178 712.5835,-178 712.5835,-178 712.5835,-205.973 712.5835,-205.973"/>
<polygon fill="#000000" stroke="#000000" points="709.0835,-205.973 712.5835,-215.973 716.0835,-205.973 709.0835,-205.973"/>
</g>
<!-- CommentComponent  -->
<g id="node8" class="node">
<title>CommentComponent </title>
<polygon fill="#fb8072" stroke="#000000" points="682.0554,-252 541.9446,-252 541.9446,-216 682.0554,-216 682.0554,-252"/>
<text text-anchor="middle" x="612" y="-229.8" font-family="Times,serif" font-size="14.00" fill="#000000">CommentComponent </text>
</g>
<!-- CommentModule&#45;&gt;CommentComponent  -->
<g id="edge7" class="edge">
<title>CommentModule&#45;&gt;CommentComponent </title>
<path fill="none" stroke="#000000" stroke-dasharray="5,2" d="M562.1794,-187.1061C562.1794,-187.1061 562.1794,-205.991 562.1794,-205.991"/>
<polygon fill="#000000" stroke="#000000" points="558.6794,-205.9909 562.1794,-215.991 565.6794,-205.991 558.6794,-205.9909"/>
</g>
<!-- CommentFormComponent  -->
<g id="node9" class="node">
<title>CommentFormComponent </title>
<polygon fill="#fb8072" stroke="#000000" points="524.3896,-252 353.6104,-252 353.6104,-216 524.3896,-216 524.3896,-252"/>
<text text-anchor="middle" x="439" y="-229.8" font-family="Times,serif" font-size="14.00" fill="#000000">CommentFormComponent </text>
</g>
<!-- CommentModule&#45;&gt;CommentFormComponent  -->
<g id="edge8" class="edge">
<title>CommentModule&#45;&gt;CommentFormComponent </title>
<path fill="none" stroke="#000000" stroke-dasharray="5,2" d="M495.9041,-187.1061C495.9041,-187.1061 495.9041,-205.991 495.9041,-205.991"/>
<polygon fill="#000000" stroke="#000000" points="492.4042,-205.9909 495.9041,-215.991 499.4042,-205.991 492.4042,-205.9909"/>
</g>
<!-- CommentListComponent  -->
<g id="node10" class="node">
<title>CommentListComponent </title>
<polygon fill="#fb8072" stroke="#000000" points="335.8339,-252 174.1661,-252 174.1661,-216 335.8339,-216 335.8339,-252"/>
<text text-anchor="middle" x="255" y="-229.8" font-family="Times,serif" font-size="14.00" fill="#000000">CommentListComponent </text>
</g>
<!-- CommentModule&#45;&gt;CommentListComponent  -->
<g id="edge9" class="edge">
<title>CommentModule&#45;&gt;CommentListComponent </title>
<path fill="none" stroke="#000000" stroke-dasharray="5,2" d="M467.6373,-178C386.5473,-178 248.1538,-178 248.1538,-178 248.1538,-178 248.1538,-205.973 248.1538,-205.973"/>
<polygon fill="#000000" stroke="#000000" points="244.6539,-205.973 248.1538,-215.973 251.6539,-205.973 244.6539,-205.973"/>
</g>
<!-- AppMaterialModule -->
<g id="node6" class="node">
<title>AppMaterialModule</title>
<polygon fill="#8dd3c7" stroke="#000000" points="335.5772,-122 332.5772,-126 311.5772,-126 308.5772,-122 204.4228,-122 204.4228,-86 335.5772,-86 335.5772,-122"/>
<text text-anchor="middle" x="270" y="-99.8" font-family="Times,serif" font-size="14.00" fill="#000000">AppMaterialModule</text>
</g>
<!-- AppMaterialModule&#45;&gt;CommentModule -->
<g id="edge5" class="edge">
<title>AppMaterialModule&#45;&gt;CommentModule</title>
<path fill="none" stroke="#000000" d="M291.8462,-122.027C291.8462,-138.3976 291.8462,-160 291.8462,-160 291.8462,-160 457.6655,-160 457.6655,-160"/>
<polygon fill="#000000" stroke="#000000" points="457.6656,-163.5001 467.6655,-160 457.6655,-156.5001 457.6656,-163.5001"/>
</g>
<!-- CommentService -->
<g id="node11" class="node">
<title>CommentService</title>
<ellipse fill="#fdb462" stroke="#000000" cx="102" cy="-104" rx="78.1675" ry="18"/>
<text text-anchor="middle" x="102" y="-99.8" font-family="Times,serif" font-size="14.00" fill="#000000">CommentService</text>
</g>
<!-- CommentService&#45;&gt;CommentModule -->
<g id="edge10" class="edge">
<title>CommentService&#45;&gt;CommentModule</title>
<path fill="none" stroke="#000000" d="M98.9997,-122.1061C98.9997,-141.3391 98.9997,-169 98.9997,-169 98.9997,-169 457.5477,-169 457.5477,-169"/>
<polygon fill="#000000" stroke="#000000" points="457.5477,-172.5001 467.5477,-169 457.5477,-165.5001 457.5477,-172.5001"/>
</g>
</g>
</svg>
